<svg width="100" height="100" viewBox="0 0 100 100" fill="none" xmlns="http://www.w3.org/2000/svg">
<path d="M92.5485 20.2848C92.5485 18.4771 90.9612 17 88.9991 17H11.0009C9.06083 17 7.45151 18.4771 7.45151 20.2848V71.1887H92.5485V20.2848ZM89.6826 36.709V68.0803H10.3395V36.709V20.1085H89.6826V36.709ZM96.4506 74.3854H3.54935C1.60932 74.3854 0 75.9727 0 77.9348V78.8386C0 80.7787 1.58727 82.388 3.54935 82.388H96.4506C98.3907 82.388 100 80.8007 100 78.8386V77.9348C100 75.9947 98.4127 74.3854 96.4506 74.3854Z" fill="white"/>
<path d="M13.0508 22.8638V65.3241H86.9044V22.8638H13.0508ZM75.3083 54.3232C75.3083 54.3232 72.773 53.8603 68.5181 52.4052C64.153 50.9061 62.676 49.7818 62.676 49.7818L63.0508 44.8876C63.0508 44.8876 59.9203 43.6751 50.7712 43.6751C41.6222 43.6751 38.4917 44.8876 38.4917 44.8876L38.8665 49.7818C38.8665 49.7818 37.3894 50.9282 33.0243 52.4052C28.7474 53.8603 26.2342 54.3232 26.2342 54.3232C26.2342 54.3232 23.1919 50.6416 22.1778 45.5049C27.7995 41.0737 37.8523 37.3699 50.7712 37.3699C63.6901 37.3699 73.7431 41.0737 79.3648 45.5049C78.3507 50.6636 75.3083 54.3232 75.3083 54.3232Z" fill="url(#paint0_linear_621_1370)"/>
<defs>
<linearGradient id="paint0_linear_621_1370" x1="7.22806" y1="65.324" x2="30.0257" y2="5.50706" gradientUnits="userSpaceOnUse">
<stop stop-color="#2BAAE2"/>
<stop offset="0.453125" stop-color="#4496DF"/>
<stop offset="1" stop-color="#9B4FD6"/>
</linearGradient>
</defs>
</svg>
