<svg width="80" height="81" viewBox="0 0 80 81" fill="none" xmlns="http://www.w3.org/2000/svg">
<path d="M39.0393 1.74459L31.5697 4.28308L32.8872 8.15992L40.3568 5.62142L39.0393 1.74459Z" fill="white"/>
<path d="M50.5823 52.0825L53.0355 55.5594L52.7355 47.9879C52.7355 47.9879 52.7708 47.8643 52.7885 47.8114L52.1884 46.8407C51.6942 47.1407 51.1471 47.3878 50.5823 47.582V52.0825ZM50.5823 45.517C53.5474 44.158 55.0829 40.7694 54.1298 37.5573C53.671 36.3571 52.8767 35.2982 51.8354 34.5393C51.4295 34.8569 51.0059 35.1923 50.5823 35.51V45.517ZM79.8269 61.5424L62.5661 10.7836C61.9484 8.94804 59.9187 7.94204 58.0832 8.57741L44.917 13.0603L45.4817 14.7193C48.4291 15.7253 50.5823 18.4962 50.5823 21.779V25.1852L55.2417 23.5968L63.3603 47.4937C61.8601 47.582 59.9716 47.6878 58.3303 47.7937C56.6183 47.8996 55.1888 47.9879 54.7299 48.0055L54.924 55.1358L51.2706 56.3889L50.5647 55.4005V60.8717L65.9194 55.6476L66.8724 58.4362L50.5647 63.978V75.2381L77.6031 66.0429C79.4386 65.4252 80.4446 63.3956 79.8093 61.5601L79.8269 61.5424ZM51.9942 69.1492L51.0412 66.3606L61.3836 62.8484L62.3367 65.637L51.9942 69.1492ZM52.7179 32.8802C52.206 31.6978 51.4824 30.8153 50.5647 30.2682V33.092L51.5354 32.3331L52.2414 32.5449C52.4179 32.6508 52.559 32.7743 52.7179 32.8802Z" fill="white"/>
<path d="M33.5511 10.148L34.9454 14.2602H43.0816C43.0816 14.2602 43.2051 14.2602 43.2757 14.2779L40.999 7.60651L33.5334 10.148H33.5511Z" fill="white"/>
<path d="M17.3314 38.6349L18.3198 38.9878C20.0318 39.6056 21.9379 40.2762 23.2792 40.2762C24.6205 40.2762 26.5266 39.6056 28.0444 39.0584L29.2446 38.6349L29.8623 39.0584C29.9859 39.1996 30.0917 39.3761 30.1976 39.535C30.0741 38.176 29.6505 37.0288 28.8916 36.2169C27.7797 35.0168 25.9089 34.3991 23.3321 34.3991C20.7554 34.3991 18.8846 35.0168 17.7727 36.2169C16.9785 37.0817 16.5548 38.2819 16.4666 39.7997C16.6078 39.5879 16.749 39.3585 16.9255 39.1643L17.3491 38.6702L17.3314 38.6349ZM43.0992 18.2148H29.1917V21.7623H30.4624C31.7331 21.7623 32.7568 22.786 32.7568 24.0567C32.7568 25.3274 31.7331 26.3511 30.4624 26.3511H16.1666C14.8959 26.3511 13.8722 25.3274 13.8722 24.0567C13.8722 22.786 14.8959 21.7623 16.1666 21.7623H17.4373V18.2148H3.52982C1.58842 18.2148 0 19.8033 0 21.7447V75.3627C0 77.3041 1.58842 78.8925 3.52982 78.8925H43.1168C45.0582 78.8925 46.6466 77.3041 46.6466 75.3627V21.7623C46.6466 19.8209 45.0582 18.2325 43.1168 18.2325L43.0992 18.2148ZM28.768 73.6331H17.8432V70.6856H28.768V73.6331ZM35.4041 68.2501H11.2248V65.3027H35.4041V68.2501ZM35.5983 56.7429C34.1511 56.3369 32.3332 55.8427 30.7271 55.4192C29.0681 54.9779 27.6915 54.5897 27.2502 54.4661L25.15 61.2787H21.2848L19.2552 54.3779C18.761 54.5897 17.3314 54.9956 15.6195 55.4898C14.1546 55.9133 12.4779 56.3899 11.0484 56.8134V31.5223H35.5983V56.7605V56.7429ZM23.438 52.7542C22.7674 52.7542 22.132 52.6659 21.5143 52.5071L21.1437 54.0955L23.2086 61.0845L25.3618 53.8307C25.3618 53.8307 25.4324 53.7425 25.4677 53.6719L25.2029 52.56C24.6382 52.6836 24.0381 52.7542 23.438 52.7542ZM23.2969 42.1647C21.6731 42.1647 19.6435 41.4587 17.9845 40.8763C17.2785 41.9176 16.8902 43.1354 16.8373 44.3885C16.9785 47.9712 19.8729 50.848 23.438 50.848C27.0031 50.848 29.8976 47.9712 30.0388 44.3885C29.9858 43.1001 29.5799 41.847 28.8386 40.7881C26.9855 41.4411 24.9382 42.1647 23.2969 42.1647ZM19.3787 5.56042V9.65502H27.2679V5.57807H19.3787V5.56042ZM19.3787 23.8802H27.2679V11.8259H19.3787V23.8979V23.8802Z" fill="white"/>
</svg>