<svg width="100" height="100" viewBox="0 0 100 100" fill="none" xmlns="http://www.w3.org/2000/svg">
<path d="M12.4001 90.6702V81.4602C12.4001 73.8502 15.4801 69.9502 22.4001 67.5402C25.0101 66.6302 27.2901 65.8802 31.0201 64.8002M33.1102 42.9502C27.9202 44.2802 23.8602 48.2702 23.8602 48.2702L31.0802 64.6802L50.7202 86.3102L43.4702 64.0602L44.9001 58.3902M40.1602 64.6202L43.4601 64.0502M89.0302 90.6702V81.4602C89.0302 73.8502 85.9502 69.9502 79.0302 67.5402C76.4202 66.6302 74.1402 65.8802 70.4102 64.8002M56.5302 58.3902L57.9601 64.0602L50.7101 86.3102L70.3501 64.6802L77.5701 48.2702C77.5701 48.2702 73.5101 44.2802 68.3201 42.9502M57.9702 64.0602L61.2701 64.6302M50.7202 86.3002V90.6602" stroke="url(#paint0_linear_768_1135)" stroke-width="3.5" stroke-linecap="round" stroke-linejoin="round"/>
<path d="M49.39 40.8898C49.17 43.9598 47.28 46.4098 45.07 46.6598C41.87 47.0098 38.71 44.6098 36.55 39.7398M52.05 40.8898C52.27 43.9598 54.16 46.4098 56.37 46.6598C59.57 47.0098 62.73 44.6098 64.89 39.7398M33.15 38.8198C33.08 39.4398 33.04 40.0598 33.04 40.6998C33.04 50.6398 40.95 59.2698 50.72 59.2698C60.49 59.2698 68.4 50.6398 68.4 40.6998C68.4 40.0598 68.36 39.4298 68.29 38.8198M33.15 38.8198C24.63 36.8298 19.01 33.4398 19.01 29.5898C19.01 25.3598 25.78 21.6898 35.72 19.8198M33.15 38.8198C38.18 39.9898 44.22 40.6798 50.71 40.6798C57.2 40.6798 63.25 39.9998 68.27 38.8198C76.79 36.8298 82.41 33.4398 82.41 29.5898C82.41 25.3698 75.65 21.6898 65.7 19.8198M68.23 27.3698C65.35 15.3998 58.92 8.2998 55.82 8.2998C52.72 8.2998 52.27 11.3998 50.72 11.3998C49.17 11.3998 48.72 8.2998 45.62 8.2998C42.52 8.2998 36.09 15.3898 33.21 27.3698C33.21 33.5798 68.24 33.5798 68.24 27.3698H68.23Z" stroke="#CED5F0" stroke-width="3.5" stroke-linecap="round" stroke-linejoin="round"/>
<defs>
<linearGradient id="paint0_linear_768_1135" x1="12.4001" y1="42.9502" x2="55.226" y2="111.721" gradientUnits="userSpaceOnUse">
<stop stop-color="#8FDDFF"/>
<stop offset="1" stop-color="#D299FF"/>
</linearGradient>
</defs>
</svg>
