<svg width="100" height="100" viewBox="0 0 100 100" fill="none" xmlns="http://www.w3.org/2000/svg">
<path d="M72.61 94.7698H27.39C25.48 94.7698 23.74 93.2098 23.51 91.2498L20.69 67.4198C20.18 63.1098 22.9 59.5098 26.79 59.5098H73.22C77.11 59.5098 79.83 63.1098 79.32 67.4198L76.5 91.2498C76.27 93.2098 74.53 94.7698 72.62 94.7698H72.61ZM50 72.1998C46.91 72.1998 44.4 74.4798 44.4 77.2998C44.4 80.1198 46.91 82.3998 50 82.3998C53.09 82.3998 55.6 80.1198 55.6 77.2998C55.6 74.4798 53.09 72.1998 50 72.1998Z" stroke="url(#paint0_linear_824_81)" stroke-width="3.5" stroke-linecap="round" stroke-linejoin="round"/>
<path d="M31.09 54.0503C31.09 54.0503 24.45 45.0203 25.47 34.6303C26.49 24.2403 36.54 4.82031 50 4.82031C63.46 4.82031 73.51 24.2403 74.53 34.6303C75.55 45.0203 68.91 54.0503 68.91 54.0503M74.36 37.5203C68.23 34.1103 60.22 31.3903 50 31.3903C39.78 31.3903 31.77 34.1203 25.64 37.5203M27.17 48.2603C22.4 49.9603 15.67 51.5503 10.64 62.5703C5.36 74.1503 -2.82 94.7703 16.09 94.7703M83.9 94.7703C102.81 94.7703 94.63 74.1603 89.35 62.5703C84.33 51.5503 77.59 49.9603 72.82 48.2603M34.67 33.9503C34.67 41.4503 41.31 52.8603 50 52.8603C58.69 52.8603 65.33 41.4503 65.33 33.9503M37.64 33.6303C37.64 33.6303 40.3 37.1203 44.35 37.1203C46.59 37.1203 48.54 35.1403 48.54 31.3903M51.45 31.3903C51.45 35.1403 53.41 37.1203 55.64 37.1203C59.69 37.1203 62.35 33.6303 62.35 33.6303M40.95 48.7703L34.99 50.0503M59.05 48.7703L65.01 50.0503" stroke="#CED5F0" stroke-width="3.5" stroke-linecap="round" stroke-linejoin="round"/>
<defs>
<linearGradient id="paint0_linear_824_81" x1="20.6285" y1="59.5098" x2="51.7437" y2="111.356" gradientUnits="userSpaceOnUse">
<stop stop-color="#8FDDFF"/>
<stop offset="1" stop-color="#D299FF"/>
</linearGradient>
</defs>
</svg>
