<svg width="100" height="100" viewBox="0 0 100 100" fill="none" xmlns="http://www.w3.org/2000/svg">
<path d="M94.5 49.9999H81.24M18.76 49.9999H5.5M25.21 32.6699H32.94M39.14 32.6699H46.87M53.08 32.6699H60.81M67.02 32.6699H74.75M20.37 55.7799H34.21M42.59 55.7799H57.41M65.78 55.7799H79.62M22.17 44.2199H24.41M31.1 44.2199H33.34M40.03 44.2199H42.27M48.96 44.2199H51.2M57.9 44.2199H60.14M66.83 44.2199H69.07M75.76 44.2199H78M40.18 67.5799H40.43M46.64 67.5799H46.89M66.02 67.5799H66.27M72.48 67.5799H72.73M27.26 67.5799H27.51M33.72 67.5799H33.97M53.1 67.5799H53.35M59.56 67.5799H59.81" stroke="url(#paint0_linear_768_225)" stroke-width="3.5" stroke-linecap="round" stroke-linejoin="round"/>
<path d="M68.1699 74.6099L84.1399 90.5799C85.9199 92.3599 88.7999 92.3599 90.5799 90.5799C92.3599 88.7999 92.3599 85.9199 90.5799 84.1399L74.6099 68.1699M71.3899 28.6099C83.1999 40.4199 83.1999 59.5799 71.3899 71.3899C59.5799 83.1999 40.4199 83.1999 28.6099 71.3899C16.7999 59.5799 16.7999 40.4199 28.6099 28.6099C40.4199 16.7999 59.5799 16.7999 71.3899 28.6099Z" stroke="#CED5F0" stroke-width="3.5" stroke-linecap="round" stroke-linejoin="round"/>
<defs>
<linearGradient id="paint0_linear_768_225" x1="5.5" y1="32.6699" x2="29.2349" y2="93.18" gradientUnits="userSpaceOnUse">
<stop stop-color="#8FDDFF"/>
<stop offset="1" stop-color="#D299FF"/>
</linearGradient>
</defs>
</svg>
