<svg width="100" height="100" viewBox="0 0 100 100" fill="none" xmlns="http://www.w3.org/2000/svg">
<path d="M60.4401 70.7299V52.0399H50.6301V90.8899C47.3001 96.6499 34.6701 97.9799 31.3401 86.6799C23.1401 87.7899 17.3701 80.0299 21.3601 71.3799C14.4901 68.2799 8.7201 62.0699 15.1501 50.3199C7.8301 37.9099 12.0501 20.6099 25.3501 18.3999C27.3501 14.4099 30.6801 9.8099 38.4301 7.97989C41.7001 7.2099 44.2601 7.8299 46.1801 8.8899M36.9101 70.8199C34.5701 70.8199 32.6701 72.7199 32.6701 75.0599C32.6701 77.3999 34.5701 79.2999 36.9101 79.2999C39.2501 79.2999 41.1501 77.3999 41.1501 75.0599C41.1501 72.7199 39.2501 70.8199 36.9101 70.8199ZM36.9101 70.8199V62.1699H21.3601V71.3699M15.1601 50.3199H24.1901M28.6001 46.0799C26.2601 46.0799 24.3601 47.9799 24.3601 50.3199C24.3601 52.6599 26.2601 54.5599 28.6001 54.5599C30.9401 54.5599 32.8401 52.6599 32.8401 50.3199C32.8401 47.9799 30.9401 46.0799 28.6001 46.0799ZM60.4701 70.7699C58.1301 70.7699 56.2301 72.6699 56.2301 75.0099C56.2301 77.3499 58.1301 79.2499 60.4701 79.2499C62.8101 79.2499 64.7101 77.3499 64.7101 75.0099C64.7101 72.6699 62.8101 70.7699 60.4701 70.7699Z" stroke="#CED5F0" stroke-width="3.5" stroke-linecap="round" stroke-linejoin="round"/>
<path d="M32.8404 30.0898H40.3204V43.3898H50.6304V13.9598C50.6304 10.1898 54.4004 5.97978 62.8204 7.96978C70.5704 9.79978 73.9004 14.3998 75.9004 18.3898C89.2004 20.6098 93.4103 37.8998 86.1003 50.3098C92.5303 62.0598 86.7704 68.2698 79.8904 71.3698C83.8804 80.0198 78.1204 87.7798 69.9104 86.6698C67.5304 94.7498 60.4004 96.3798 55.3104 94.5398M75.9104 18.3898H64.2703V28.5898M86.1003 50.3198H76.4004M28.6004 25.9298C26.2604 25.9298 24.3604 27.8298 24.3604 30.1698C24.3604 32.5098 26.2604 34.4098 28.6004 34.4098C30.9404 34.4098 32.8404 32.5098 32.8404 30.1698C32.8404 27.8298 30.9404 25.9298 28.6004 25.9298ZM64.3503 28.7598C62.0103 28.7598 60.1104 30.6598 60.1104 32.9998C60.1104 35.3398 62.0103 37.2398 64.3503 37.2398C66.6903 37.2398 68.5903 35.3398 68.5903 32.9998C68.5903 30.6598 66.6903 28.7598 64.3503 28.7598ZM72.0004 46.0398C69.6604 46.0398 67.7604 47.9398 67.7604 50.2798C67.7604 52.6198 69.6604 54.5198 72.0004 54.5198C74.3404 54.5198 76.2403 52.6198 76.2403 50.2798C76.2403 47.9398 74.3404 46.0398 72.0004 46.0398Z" stroke="url(#paint0_linear_852_182)" stroke-width="3.5" stroke-linecap="round" stroke-linejoin="round"/>
<defs>
<linearGradient id="paint0_linear_852_182" x1="24.3604" y1="7.45898" x2="108.424" y2="70.006" gradientUnits="userSpaceOnUse">
<stop stop-color="#8FDDFF"/>
<stop offset="1" stop-color="#D299FF"/>
</linearGradient>
</defs>
</svg>
