<svg width="162" height="100" viewBox="0 0 162 100" fill="none" xmlns="http://www.w3.org/2000/svg">
<path d="M37.9268 56.4404L57.4586 22.4377L63.5902 33.1025H76.4736L57.4586 0L17.7061 69.2521L37.9268 56.4404Z" fill="url(#paint0_linear_1_674)"/>
<path d="M77.886 81.6136L75.5779 71.4335L73.27 81.6136H67.5861L62.4879 63.6772H68.5162L70.8242 74.6537L73.5111 63.6772H77.5759L80.2628 74.6537L82.5364 63.6772H88.5992L83.5009 81.6136H77.8171H77.886Z" fill="white"/>
<path d="M108.441 88.781H19.3251L30.176 69.9099L13.8479 75.9002L0 99.9999H114.883L108.441 88.781ZM100.621 81.6135L99.9667 79.5013H93.5595L92.905 81.6135H86.7733L93.3528 63.6772H100.139L106.718 81.6135H100.587H100.621ZM96.7631 69.0096L95.0063 74.7921H98.5544L96.7976 69.0096H96.7631ZM107.717 81.6135V63.6772H121.255V68.421H113.126V70.1869H121.083V74.9306H113.126V81.6135H107.717ZM118.775 45.2215C118.775 42.0013 115.882 39.6814 111.886 39.6814H100.208V57.5484H102.998V42.4861H111.886C114.262 42.4861 115.985 43.6287 115.985 45.2215C115.985 46.8143 114.262 47.957 111.886 47.957H107.132L105.513 50.7617H111.886C115.882 50.7617 118.775 48.4417 118.775 45.2215ZM66.8282 42.4861H79.746V39.6814H64.038V57.5484H66.8282V42.4861ZM79.5394 57.5484L81.9163 53.3932H92.5261L94.9029 57.5484H98.1066L87.2211 38.4348L76.3013 57.5484H79.5394ZM87.2211 44.0789L90.9071 50.5885H83.5008L87.1867 44.0789H87.2211ZM116.502 57.5484H119.705L127.387 44.0789L133.519 54.7436H124.562L122.978 57.5484H138.376L127.387 38.4694L116.502 57.5484ZM144.921 53.3932H155.531L157.908 57.5484H161.111L150.191 38.4348L139.306 57.5484H142.509L144.886 53.3932H144.921ZM150.226 44.0789L153.912 50.5539H146.505L150.191 44.0789H150.226Z" fill="white"/>
<defs>
<linearGradient id="paint0_linear_1_674" x1="17.7061" y1="69.2521" x2="86.0354" y2="11.2677" gradientUnits="userSpaceOnUse">
<stop stop-color="#5CCDFF"/>
<stop offset="0.825" stop-color="#C478FF"/>
</linearGradient>
</defs>
</svg>
