<svg width="215" height="100" viewBox="0 0 215 100" fill="none" xmlns="http://www.w3.org/2000/svg">
<path d="M37.9893 56.4254L57.5532 22.4108L63.695 33.0793H76.5996L57.5532 0L17.7353 69.2415L37.9893 56.4254Z" fill="url(#paint0_linear_1_675)"/>
<path d="M64.3852 81.6073V63.6648H72.3557C77.9799 63.6648 82.1549 66.8861 82.1549 72.636C82.1549 78.386 77.9799 81.6073 72.3902 81.6073H64.3852ZM76.6688 72.636C76.6688 70.2114 75.2886 68.4102 72.3902 68.4102H69.8024V76.8965H72.3902C75.1161 76.8965 76.7033 74.9221 76.7033 72.636H76.6688Z" fill="white"/>
<path d="M156.27 81.6073V68.4102H151.474V63.6648H166.449V68.4102H161.687V81.6073H156.27Z" fill="white"/>
<path d="M168.381 81.6073V63.6648H173.798V81.6073H168.381Z" fill="white"/>
<path d="M175.731 72.6707C175.731 67.1632 180.009 63.3877 185.495 63.3877C190.982 63.3877 195.26 67.1632 195.26 72.6707C195.26 78.1781 190.982 81.9537 185.495 81.9537C180.009 81.9537 175.731 78.1781 175.731 72.6707ZM189.808 72.6707C189.808 70.1767 188.118 68.1678 185.53 68.1678C182.942 68.1678 181.251 70.1767 181.251 72.6707C181.251 75.1646 182.942 77.1736 185.53 77.1736C188.118 77.1736 189.808 75.1646 189.808 72.6707Z" fill="white"/>
<path d="M209.234 81.6073L202.644 72.5321V81.6073H197.227V63.6648H202.816L209.027 72.1511V63.6648H214.444V81.6073H209.234Z" fill="white"/>
<path d="M108.62 88.7773H19.3569L30.2258 69.8996L13.8707 75.892L0 100H115.072L108.62 88.7773ZM84.087 81.6072V63.6647H97.6472V68.4101H89.5041V70.1766H97.4747V74.9221H89.5041V76.8964H97.6472V81.6419H84.087V81.6072ZM99.0964 72.6706C99.0964 67.1285 103.34 63.3876 108.93 63.3876C113.623 63.3876 115.969 66.124 117.039 68.6179L112.381 70.8002C111.932 69.4146 110.517 68.2023 108.93 68.2023C106.342 68.2023 104.583 70.2113 104.583 72.7053C104.583 75.1992 106.308 77.2082 108.93 77.2082C110.552 77.2082 111.932 75.9959 112.381 74.6104L117.039 76.7579C116.003 79.1479 113.623 81.9882 108.93 81.9882C103.34 81.9882 99.0964 78.2127 99.0964 72.7053V72.6706ZM118.729 81.6072V63.6647H132.29V68.4101H124.147V70.1766H132.117V74.9221H124.147V76.8964H132.29V81.6419H118.729V81.6072ZM134.705 81.6072V63.6647H144.263C148.438 63.6647 150.68 66.4704 150.68 69.8303C150.68 73.1902 148.438 75.9612 144.263 75.9612H140.122V81.6072H134.705ZM145.194 69.8303C145.194 68.8604 144.47 68.4101 143.572 68.4101H140.157V71.2505H143.572C144.47 71.2505 145.194 70.8001 145.194 69.8649V69.8303ZM118.971 45.2027C118.971 41.9813 116.072 39.6605 112.07 39.6605H100.373V57.5338H103.168V42.4662H112.07C114.451 42.4662 116.176 43.6093 116.176 45.2027C116.176 46.796 114.451 47.939 112.07 47.939H107.308L105.687 50.7448H112.07C116.072 50.7448 118.971 48.424 118.971 45.2027ZM66.9383 42.4662H79.8775V39.6605H64.1435V57.5338H66.9383V42.4662ZM79.6704 57.5338L82.0513 53.3772H92.6786L95.0593 57.5338H98.2683L87.3649 38.4136L76.427 57.5338H79.6704ZM87.3649 44.0596L91.0569 50.5716H83.6384L87.3304 44.0596H87.3649ZM116.694 57.5338H119.902L127.597 44.0596L133.739 54.7281H124.768L123.18 57.5338H138.604L127.597 38.4482L116.694 57.5338ZM145.16 53.3772H155.787L158.168 57.5338H161.377L150.439 38.4136L139.535 57.5338H142.744L145.125 53.3772H145.16ZM150.473 44.0596L154.165 50.5369H146.747L150.439 44.0596H150.473Z" fill="white"/>
<defs>
<linearGradient id="paint0_linear_1_675" x1="17.7353" y1="69.2415" x2="86.074" y2="11.1446" gradientUnits="userSpaceOnUse">
<stop stop-color="#5CCDFF"/>
<stop offset="0.825" stop-color="#C478FF"/>
</linearGradient>
</defs>
</svg>
