<svg width="133" height="44" viewBox="0 0 133 44" fill="none" xmlns="http://www.w3.org/2000/svg">
<g clip-path="url(#clip0_1614_9051)">
<path d="M25.2849 12.5375C25.2849 19.2514 19.7635 24.6939 12.9523 24.6939C6.14124 24.6939 0.619751 19.2514 0.619751 12.5375C0.619751 5.82371 6.14124 0.381104 12.9523 0.381104C19.7635 0.381104 25.2849 5.82371 25.2849 12.5375Z" fill="white"/>
<path d="M12.9523 40.9025C6.13497 40.9025 0.619812 41.3448 0.619812 41.7866V42.7201C0.619812 43.1619 6.13497 43.6039 12.9523 43.6039C19.7696 43.6039 25.2848 43.1619 25.2848 42.7201V41.7866C25.3231 41.3448 19.7696 40.9025 12.9523 40.9025Z" fill="white"/>
<path d="M0.619812 33.4736V32.1229C0.619812 29.8849 6.1413 28.0708 12.9524 28.0708C19.7635 28.0708 25.285 29.8849 25.285 32.1229V33.4736C25.285 35.7116 19.7635 37.5258 12.9524 37.5258C6.1413 37.5258 0.619812 35.7116 0.619812 33.4736Z" fill="white"/>
<path d="M67.8928 27.734C69.4774 29.2218 71.4868 29.9848 73.9215 29.9848C74.5784 29.9848 77.0903 29.8704 78.8293 28.8784L81.2255 32.5407C81.2255 32.5407 78.5588 34.6773 73.651 34.6773C69.7479 34.6773 66.5018 33.4183 64.0671 31.1293C61.5164 28.7259 60.2411 25.674 60.2411 21.9735C60.2411 18.235 61.5164 15.183 64.0283 12.8177C66.463 10.5669 69.7091 9.2699 73.651 9.2699C78.5588 9.2699 81.2255 11.4062 81.2255 11.4062L78.8293 15.0685C76.8198 13.924 73.7283 13.9623 73.7283 13.9623C71.4096 13.9623 69.4386 14.7251 67.8156 16.2512C66.2698 17.739 65.497 19.6465 65.497 21.9735C65.497 24.3006 66.2698 26.2081 67.8928 27.734Z" fill="white"/>
<path d="M85.5912 34.2196H90.6926V14.2674H101.281V34.2196H106.344V9.76587H85.5912V34.2196Z" fill="white"/>
<path fill-rule="evenodd" clip-rule="evenodd" d="M54.1657 20.4095C52.5039 18.9216 50.2239 18.1587 47.3256 18.1587H41.9926V14.2674H54.9385V9.76587H36.8913V34.2196H47.3256C50.2239 34.2196 52.5039 33.4945 54.2045 32.0067C55.8662 30.4808 56.7163 28.5734 56.7163 26.2081C56.7163 23.881 55.8662 21.9354 54.1657 20.4095ZM50.3785 28.8404C49.5671 29.4508 48.4462 29.7941 46.9392 29.7941H41.9926V22.3932H46.9392C48.4075 22.3932 49.5284 22.7365 50.34 23.3851C51.1513 24.0336 51.5765 24.9491 51.5765 26.1318C51.5765 27.3145 51.1513 28.23 50.3785 28.8404Z" fill="white"/>
<path fill-rule="evenodd" clip-rule="evenodd" d="M122.773 18.1587C125.672 18.1587 127.952 18.9216 129.614 20.4095C131.314 21.9354 132.164 23.881 132.164 26.2081C132.164 28.5734 131.314 30.4808 129.652 32.0067C127.952 33.4945 125.672 34.2196 122.773 34.2196H112.339V9.76587H130.387V14.2674H117.44V18.1587H122.773ZM122.387 29.7941C123.894 29.7941 125.015 29.4508 125.827 28.8404C126.6 28.23 127.025 27.3145 127.025 26.1318C127.025 24.9491 126.599 24.0336 125.788 23.3851C124.976 22.7365 123.856 22.3932 122.387 22.3932H117.44V29.7941H122.387Z" fill="white"/>
</g>
<defs>
<clipPath id="clip0_1614_9051">
<rect width="131.548" height="43.2228" fill="white" transform="translate(0.619751 0.381104)"/>
</clipPath>
</defs>
</svg>
