<svg width="199" height="35" viewBox="0 0 199 35" fill="none" xmlns="http://www.w3.org/2000/svg">
<g clip-path="url(#clip0_1614_8995)">
<path d="M20.7861 0.223389V18.0603C20.7861 18.8757 20.1684 19.4873 19.3449 19.4873H17.1831C17.0801 19.4873 16.9772 19.5892 16.9772 19.6911V34.6742C17.4919 34.6742 18.0066 34.7761 18.6243 34.7761C28.3009 34.7761 36.1245 27.0298 36.1245 17.4488C36.1245 8.58127 29.4332 1.24264 20.7861 0.223389ZM20.3743 26.9278C19.139 26.9278 18.2125 25.9086 18.2125 24.7874C18.2125 23.5643 19.2419 22.647 20.3743 22.647C21.6096 22.647 22.5361 23.6662 22.5361 24.7874C22.639 25.9086 21.6096 26.9278 20.3743 26.9278ZM25.5214 26.9278C24.2861 26.9278 23.3596 25.9086 23.3596 24.7874C23.3596 23.5643 24.3891 22.647 25.5214 22.647C26.7567 22.647 27.6832 23.6662 27.6832 24.7874C27.6832 25.9086 26.7567 26.9278 25.5214 26.9278ZM30.6686 26.9278C29.4332 26.9278 28.5068 25.9086 28.5068 24.7874C28.5068 23.5643 29.5362 22.647 30.6686 22.647C31.9039 22.647 32.8304 23.6662 32.8304 24.7874C32.8304 25.9086 31.9039 26.9278 30.6686 26.9278Z" fill="white"/>
<path d="M18.6243 0.12146C8.94768 0.12146 1.12402 7.86779 1.12402 17.4488C1.12402 25.8067 6.99176 32.7376 14.9184 34.3684V18.7738C14.9184 18.0603 15.536 17.4488 16.2566 17.3469H18.4184C18.5214 17.3469 18.6243 17.2449 18.6243 17.143V0.12146ZM15.2272 14.391C13.9919 14.391 13.0654 13.3718 13.0654 12.2506C13.0654 11.0275 14.0948 10.1101 15.2272 10.1101C16.4625 10.1101 17.389 11.1294 17.389 12.2506C17.389 13.3718 16.4625 14.391 15.2272 14.391ZM193.833 9.60052V16.1238H184.98V9.60052H180.553V26.9278H184.98V19.895H193.833V26.9278H198.157V9.60052H193.833ZM120.949 11.5371C120.229 10.0082 118.788 9.19282 117.346 9.19282C115.905 9.19282 114.464 10.0082 113.743 11.5371L106.64 26.9278H111.273L112.817 23.2585H121.876L123.42 26.9278H128.052L120.949 11.5371ZM114.258 19.7931L116.935 13.4737C117.038 13.2698 117.141 13.2698 117.243 13.2698C117.346 13.2698 117.552 13.2698 117.552 13.4737L120.229 19.7931H114.258ZM68.8604 6.44084C66.8015 6.44084 65.4633 7.56201 64.5368 9.70245L58.8749 22.7489L53.2131 9.70245C52.2866 7.56201 50.9483 6.44084 48.8895 6.44084C46.9336 6.44084 44.9776 7.76587 44.9776 10.7217V26.8259H49.3012V11.2313L55.066 24.1759C55.7866 26.0105 57.1249 27.1317 58.8749 27.1317C60.7279 27.1317 61.9632 26.0105 62.6838 24.1759L68.4486 11.2313V26.9278H72.7722V10.8236C72.7722 7.86779 70.8163 6.44084 68.8604 6.44084ZM80.4929 23.2585C80.287 23.2585 80.0811 23.0547 80.0811 22.8508V19.7931H90.9931V16.2257H80.0811V13.5756C80.0811 13.3718 80.287 13.1679 80.4929 13.1679H91.3019V9.4986H78.3311C76.787 9.4986 75.7575 10.7217 75.7575 12.0467V24.1759C75.7575 25.5009 76.8899 26.724 78.3311 26.724H91.3019V23.0547H80.4929V23.2585ZM98.6108 26.9278V13.6775C98.6108 13.4737 98.8167 13.2698 99.0226 13.2698H109.832V9.60052H96.8608C95.3167 9.60052 94.2872 10.8236 94.2872 12.1487V26.8259H98.6108V26.9278ZM177.671 18.2642C177.671 12.2506 174.994 9.39667 168.406 9.39667H166.862C160.274 9.39667 157.597 12.2506 157.597 18.2642C157.597 24.1759 160.274 27.1317 166.862 27.1317H168.303C174.994 27.0298 177.671 24.1759 177.671 18.2642ZM168.303 23.4624H166.862C163.259 23.4624 161.818 21.8316 161.818 18.2642C161.818 14.7987 163.053 13.066 166.862 13.066H168.303C172.009 13.066 173.347 14.7987 173.347 18.2642C173.347 21.8316 172.009 23.4624 168.303 23.4624ZM145.45 6.84854H136.803C130.317 6.84854 127.744 10.1101 127.744 15.716C127.744 16.6334 127.847 17.4488 127.95 18.1623C128.67 22.1374 131.038 24.5836 137.111 24.5836H139.067V26.8259H143.391V24.5836H145.244C151.318 24.5836 153.685 22.1374 154.406 18.1623C154.509 17.4488 154.612 16.6334 154.612 15.716C154.509 10.1101 151.832 6.84854 145.45 6.84854ZM138.861 21.0162H136.906C133.92 21.0162 132.891 19.895 132.273 18.1623C132.067 17.5507 132.067 16.6334 132.067 15.716C132.067 12.0467 133.817 10.5179 136.288 10.5179H138.964V21.0162H138.861ZM149.979 18.2642C149.362 19.9969 148.229 21.1181 145.347 21.1181H143.391V10.5179H146.067C148.538 10.5179 150.288 12.0467 150.288 15.716C150.185 16.7353 150.185 17.5507 149.979 18.2642Z" fill="white"/>
</g>
<defs>
<clipPath id="clip0_1614_8995">
<rect width="197.321" height="34.7661" fill="white" transform="translate(0.979858 0.0147705)"/>
</clipPath>
</defs>
</svg>
