<svg width="116" height="42" viewBox="0 0 116 42" fill="white" xmlns="http://www.w3.org/2000/svg">
<g clip-path="url(#clip0_1159_9266)">
<path fill-rule="evenodd" clip-rule="evenodd" d="M7.86241 0.153809L5.89558 5.54021H33.1514L35.1183 0.153809H7.86241ZM4.91155 8.23219L2.94472 13.6174H30.2006L32.1674 8.23219H4.91155ZM1.96683 16.3106L0 21.6957H27.2559L29.2215 16.3106H1.96683Z" fill="white"/>
<mask id="mask0_1159_9266" style="mask-type:luminance" maskUnits="userSpaceOnUse" x="40" y="8" width="76" height="34">
<path d="M40.8923 41.3308H115.502V8.33575H40.8923V41.3308Z" fill="white"/>
</mask>
<g mask="url(#mask0_1159_9266)">
<path fill-rule="evenodd" clip-rule="evenodd" d="M57.9441 23.7484V23.862C59.1897 24.3191 60.3795 25.1184 61.0029 25.6317C62.929 27.2303 63.7792 29.3422 63.7792 32.0823C63.7792 36.5933 61.3996 39.8467 57.4905 40.8745C56.3006 41.2167 55.055 41.3316 52.7311 41.3316H40.8923V8.33575H51.3728C53.5256 8.33575 54.998 8.4494 56.3006 8.7916C60.0969 9.81944 62.5894 12.4459 62.5894 16.6122C62.5894 18.839 61.7962 20.7236 60.4935 21.9787C59.9271 22.5494 59.1339 23.2351 57.9441 23.7484ZM47.4637 27.2303V35.9076H51.9962C53.3546 35.9076 54.6014 35.794 55.5087 34.9372C56.4147 34.0805 56.8113 32.9965 56.8113 31.569C56.8113 30.4849 56.5274 29.4571 55.961 28.7152C54.998 27.5163 53.8082 27.2303 51.7694 27.2303H47.4637ZM47.4067 21.5216H51.0889C52.2217 21.5216 52.7882 21.5216 53.3546 21.3505C54.8852 20.8934 55.8483 19.5246 55.8483 17.64C55.8483 15.4145 54.8282 14.4429 53.3546 13.987C52.7311 13.8159 52.109 13.7585 50.8621 13.7585H47.4067V21.5216ZM73.6362 41.3316V13.8721H64.1758V8.33575H90.4624L88.5934 13.8721H80.2075V41.3316H73.6362ZM92.5012 41.3316V8.33575H113.803L111.934 13.8721H99.0168V21.1794H104.285C108.534 21.1794 110.744 22.2072 112.273 23.5198C113.463 24.5477 115.502 26.8307 115.502 31.3417C115.502 35.794 113.406 38.2481 111.65 39.5045C109.611 40.9307 107.458 41.3316 103.096 41.3316H92.5012ZM99.0168 35.794H103.946C105.815 35.794 106.948 35.3369 107.741 34.3091C108.138 33.7958 108.704 32.8816 108.704 31.1693C108.704 29.4571 108.138 28.2581 107.005 27.4014C106.326 26.8881 105.418 26.6034 103.889 26.6034H99.0168V35.794Z" fill="white"/>
</g>
</g>
<defs>
<clipPath id="clip0_1159_9266">
<rect width="115.723" height="41.5005" fill="white" transform="translate(0 0.153809)"/>
</clipPath>
</defs>
</svg>
