<?xml version="1.0" encoding="UTF-8"?>
<svg id="Layer_2" data-name="Layer 2" xmlns="http://www.w3.org/2000/svg" viewBox="0 0 1568.62 145.91">
  <defs>
    <style>
      .cls-1 {
        fill: #fff;
      }
    </style>
  </defs>
  <g id="Layer_1-2" data-name="Layer 1">
    <path class="cls-1" d="M425.94,43.76l19.89-14.66h-66.58v88.06h66.58v-14.66h-47.58v-22.55h40.59v-14.66h-40.59v-21.53h27.69ZM325.69,102.49h-19.82v-24.4h19.82c12.06,0,17.67,4.08,17.67,12.2s-5.95,12.2-17.67,12.2M328.99,63.42h-23.12v-19.66h36.91l19.9-14.66h-75.81v88.06h39.67c22.26,0,35-10.09,35-27.67s-11.57-26.07-32.57-26.07M499.36,77.55h-16.84v-33.79h16.84c12.18,0,18.88,6,18.88,16.9s-6.7,16.89-18.88,16.89M499.77,29.1h-36.25v88.06h19v-24.95h17.25c23.13,0,37.5-12.16,37.5-31.6s-14.37-31.51-37.5-31.51M254.26,98.09c-5.04,2.73-10.68,4.14-16.41,4.11-17.13,0-29.56-12.23-29.56-29.07s12.43-29.08,29.56-29.08c6.19-.09,12.25,1.81,17.29,5.41l13.62-10-.9-.79c-7.95-7-18.59-10.69-30.74-10.69-13.19,0-25.15,4.45-33.7,12.52s-13.33,19.51-13.33,32.14,4.72,24.28,13.28,32.65,20.53,13,33.63,13,25.65-4.77,33.76-13.46l-12.29-9.06-4.21,2.32ZM145.9,72.95c0-4.38-.39-8.76-1.17-13.07l-15.74,11.53v1.49c.03,31.01-25.09,56.17-56.1,56.2-31.01.03-56.17-25.09-56.2-56.1-.03-31.01,25.09-56.17,56.1-56.2,11.32,0,22.38,3.4,31.73,9.79l14.19-10.45C87.34-9.13,41.41-4.18,16.14,27.19c-25.27,31.38-20.32,77.3,11.05,102.57s77.3,20.32,102.57-11.05c10.44-12.97,16.14-29.11,16.14-45.76ZM130.67,28.3c3.47,4.48,6.4,9.34,8.75,14.5l-66.43,48.99-27.82-17.41v-20.94l27.82,17.41,57.68-42.55ZM655.04,107.46c-1.32,1.56-2.86,2.91-4.59,4-2.2,1.42-4.55,2.6-7,3.52-6.27,2.4-12.92,3.61-19.63,3.59-6.68.09-13.32-.98-19.64-3.15-5.57-1.93-10.68-4.99-15-9-4.23-4-7.53-8.87-9.69-14.28-2.42-6.1-3.6-12.63-3.5-19.19-.07-6.25,1.08-12.45,3.39-18.25,2.18-5.41,5.49-10.3,9.7-14.35,4.36-4.14,9.52-7.34,15.17-9.4,6.36-2.29,13.07-3.42,19.83-3.33,6.07-.13,12.13.76,17.91,2.62,4,1.26,7.81,3.06,11.33,5.35v21.9c-3.09-4.32-7.07-7.91-11.68-10.54-2.58-1.47-5.33-2.63-8.18-3.46-3.05-.9-6.21-1.35-9.38-1.33-4.44-.07-8.85.7-13,2.27-3.67,1.39-7.01,3.53-9.81,6.29-2.74,2.77-4.85,6.1-6.17,9.76-1.46,4.05-2.17,8.32-2.11,12.62-.01,4.08.66,8.14,2,12,2.49,7.45,8.13,13.43,15.42,16.36,4.24,1.71,8.77,2.59,13.34,2.58,3.59.03,7.16-.39,10.64-1.26,3.06-.77,6.02-1.91,8.81-3.39,2.55-1.35,4.9-3.03,7-5,1.94-1.84,3.59-3.96,4.9-6.29l-.06,19.36ZM737.24,43.52h-29.71v73.63h-15.73V43.52h-29.21v-14.48h74.65v14.48ZM766.82,89.71v27.44h-15.74V29.04h29.33c13.93,0,24.02,2.5,30.27,7.49,6.25,4.99,9.37,12.44,9.38,22.35,0,10.32-3.36,18.04-10.07,23.16-6.71,5.12-16.57,7.68-29.58,7.67h-13.59ZM766.82,43.52v31.72h14.72c7.39,0,12.93-1.28,16.62-3.84s5.53-6.86,5.54-12.9c0-5.46-1.72-9.32-5.16-11.58-3.44-2.26-9.02-3.39-16.75-3.4h-14.97ZM911.19,117.15h-16.74l-8.46-20.89h-40.38l-8.31,20.89h-16l35.75-88.11h17.94l36.2,88.11ZM880.19,81.78l-14.44-36.12-14.47,36.12h28.91ZM947.57,72.34l-29.83-43.3h18.88l22.53,33.36,23.91-33.36h18.26l-31.47,42.42,32.6,45.69h-18.76l-25.05-35.49-24.16,35.49h-18.38l31.47-44.81ZM1005.59,72.95c-.07-6.24,1.07-12.44,3.34-18.25,2.13-5.4,5.36-10.28,9.5-14.35,4.25-4.12,9.31-7.32,14.86-9.4,6.24-2.3,12.86-3.43,19.51-3.33,6.57-.08,13.11.99,19.32,3.15,5.55,1.92,10.63,4.99,14.91,9,4.19,4.01,7.46,8.88,9.57,14.28,2.36,6.1,3.51,12.59,3.4,19.13.07,6.24-1.06,12.45-3.34,18.26-2.13,5.39-5.37,10.28-9.5,14.35-4.27,4.12-9.35,7.32-14.92,9.37-6.22,2.3-12.81,3.43-19.44,3.34-6.57.08-13.1-.97-19.32-3.08-5.55-1.89-10.64-4.93-14.92-8.94-4.19-4.02-7.46-8.9-9.57-14.31-2.35-6.13-3.5-12.66-3.4-19.22ZM1022.21,73.08c-.01,4.11.66,8.19,2,12.08,1.23,3.65,3.22,7,5.85,9.82,2.72,2.85,6,5.1,9.63,6.61,8.34,3.2,17.55,3.27,25.93.19,3.59-1.41,6.85-3.56,9.57-6.3,2.71-2.78,4.78-6.1,6.1-9.75,1.47-4.05,2.2-8.34,2.15-12.65.01-4.11-.66-8.2-2-12.09-1.23-3.65-3.22-6.99-5.85-9.81-2.71-2.85-5.99-5.1-9.63-6.61-4.21-1.72-8.73-2.55-13.28-2.46-4.34-.05-8.65.72-12.69,2.29-7.33,2.82-13.06,8.7-15.67,16.11-1.44,4.04-2.16,8.3-2.11,12.59v-.02ZM1117.12,117.15V29.04h38.26c19.81,0,29.71,7.3,29.71,21.9,0,5.04-1.05,9.24-3.15,12.59-2.1,3.35-5.42,5.91-9.95,7.68,5.45.92,9.45,3.08,12,6.48s3.81,8,3.77,13.79c.11,4.03-.71,8.03-2.39,11.7-1.54,3.22-3.91,5.98-6.86,8-3.29,2.18-6.96,3.72-10.82,4.53-4.74,1.01-9.57,1.49-14.42,1.44h-36.15ZM1153.12,66.3c5.03,0,9-1.05,11.89-3.15,2.86-2,4.5-5.32,4.35-8.81.16-3.12-1.23-6.12-3.72-8-2.47-1.85-6.51-2.78-12.14-2.77h-20.65v22.73h20.27ZM1154.25,102.68c6.04,0,10.49-1,13.34-3,2.85-2,4.28-5.13,4.28-9.38,0-4.28-1.51-7.3-4.53-9.06-3.02-1.76-7.3-2.64-12.84-2.64h-21.65v24l21.4.08ZM1285.54,117.15h-16.75l-8.43-20.89h-40.37l-8.31,20.89h-16l35.75-88.11h17.87l36.24,88.11ZM1254.54,81.78l-14.45-36.12-14.47,36.12h28.92ZM1362.57,79.01h-48.21v38.14h-15.73V29.04h15.73v35.5h48.21V29.04h15.73v88.11h-15.73v-38.14ZM1417.57,94.87l48.09-65.83h17.12v88.11h-15.74V50.32l-48.33,66.83h-16.87V29.04h15.73v65.83ZM1562.58,79.01h-40.53v23.67h46.57v14.47h-62.31V29.04h60.93v14.48h-45.19v21h40.53v14.49Z"/>
  </g>
</svg>