<svg width="297" height="100" viewBox="0 0 297 100" fill="none" xmlns="http://www.w3.org/2000/svg">
<path d="M38.4313 56.4405L58.2229 22.4031L64.4361 33.1025H77.4909L58.2229 0L17.9416 69.2175L38.4313 56.4405Z" fill="url(#paint0_linear_1_664)"/>
<path d="M109.883 88.7811H19.5821L30.5775 69.9099L14.0321 75.9002L0 100H116.411L109.883 88.7811ZM81.121 81.6135V70.8448L77.0719 81.6135H74.6285L70.5795 70.8448V81.6135H65.0993V63.6772H72.6738L75.8502 72.2991L79.0266 63.6772H86.6012V81.6135H81.121ZM101.611 81.6135L100.947 79.5013H94.455L93.7918 81.6135H87.5786L94.2456 63.6772H101.122L107.789 81.6135H101.576H101.611ZM97.7012 69.0096L95.921 74.7922H99.5163L97.7361 69.0096H97.7012ZM106.986 72.6454C106.986 67.1052 111.28 63.3656 116.934 63.3656C121.681 63.3656 124.055 66.101 125.137 68.5941L120.425 70.7756C119.971 69.3905 118.54 68.1786 116.934 68.1786C114.316 68.1786 112.536 70.1869 112.536 72.68C112.536 75.1731 114.281 77.1814 116.934 77.1814C118.575 77.1814 119.971 75.9695 120.425 74.5844L125.137 76.7312C124.09 79.1204 121.681 81.9598 116.934 81.9598C111.28 81.9598 106.986 78.1855 106.986 72.68V72.6454ZM137.389 81.6135L133.305 75.277L132.293 76.6274V81.6135H126.813V63.6772H132.293V70.3947L137.04 63.6772H143.742L136.9 72.0221L144.021 81.6135H137.354H137.389ZM145.033 81.6135V63.6772H150.514V73.2686L156.797 63.6772H162.451V81.6135H156.971V71.4335L150.304 81.6135H145.033ZM165.349 81.6135V63.6772H175.018C179.241 63.6772 181.51 66.4819 181.51 69.8407C181.51 73.1994 179.241 75.9695 175.018 75.9695H170.829V81.6135H165.349ZM175.96 69.8407C175.96 68.8711 175.227 68.421 174.319 68.421H170.864V71.2603H174.319C175.227 71.2603 175.96 70.8102 175.96 69.8753V69.8407ZM182.348 72.6454C182.348 67.1398 186.676 63.3656 192.226 63.3656C197.776 63.3656 202.104 67.1398 202.104 72.6454C202.104 78.1509 197.776 81.9251 192.226 81.9251C186.676 81.9251 182.348 78.1509 182.348 72.6454ZM196.554 72.6454C196.554 70.1523 194.844 68.144 192.226 68.144C189.608 68.144 187.898 70.1523 187.898 72.6454C187.898 75.1384 189.608 77.1468 192.226 77.1468C194.844 77.1468 196.554 75.1384 196.554 72.6454ZM204.059 81.6135V63.6772H215.054C218.789 63.6772 220.43 66.1357 220.43 68.2479C220.43 70.4639 219.103 71.9875 217.358 72.3683C219.313 72.68 220.814 74.4459 220.814 76.7659C220.814 79.2589 219.103 81.6481 215.473 81.6481H204.129L204.059 81.6135ZM214.88 69.2174C214.88 68.5941 214.356 68.1786 213.798 68.1786H209.574V70.2908H213.798C214.356 70.2908 214.88 69.8753 214.88 69.2174ZM215.229 75.9695C215.229 75.3116 214.74 74.8268 213.937 74.8268H209.539V77.1121H213.937C214.74 77.1121 215.229 76.662 215.229 75.9695ZM235.021 81.6135L234.357 79.5013H227.865L227.202 81.6135H220.988L227.655 63.6772H234.532L241.199 81.6135H234.986H235.021ZM231.111 69.0096L229.331 74.7922H232.926L231.146 69.0096H231.111ZM254.184 81.6135V74.7576H247.691V81.6135H242.211V63.6772H247.691V70.0138H254.184V63.6772H259.664V81.6135H254.184ZM262.561 81.6135V63.6772H268.041V73.2686L274.324 63.6772H279.979V81.6135H274.499V71.4335L267.832 81.6135H262.561ZM282.911 81.6135V63.6772H296.629V68.421H288.391V70.1869H296.455V74.9307H288.391V76.9044H296.629V81.6481H282.911V81.6135ZM120.355 45.2215C120.355 42.0013 117.423 39.6814 113.374 39.6814H101.541V57.5484H104.368V42.4861H113.374C115.782 42.4861 117.528 43.6287 117.528 45.2215C117.528 46.8143 115.782 47.957 113.374 47.957H108.557L106.916 50.7617H113.374C117.423 50.7617 120.355 48.4417 120.355 45.2215ZM67.7172 42.4861H80.8068V39.6814H64.8898V57.5484H67.7172V42.4861ZM80.5974 57.5484L83.0059 53.3933H93.7569L96.1654 57.5484H99.4116L88.3814 38.4348L77.3163 57.5484H80.5974ZM88.3814 44.0789L92.1163 50.5885H84.6116L88.3465 44.0789H88.3814ZM118.051 57.5484H121.298L129.082 44.0789L135.295 54.7437H126.219L124.614 57.5484H140.216L129.082 38.4694L118.051 57.5484ZM146.849 53.3933H157.6L160.008 57.5484H163.254L152.189 38.4348L141.159 57.5484H144.405L146.814 53.3933H146.849ZM152.224 44.0789L155.959 50.5539H148.454L152.189 44.0789H152.224Z" fill="white"/>
<defs>
<linearGradient id="paint0_linear_1_664" x1="17.9416" y1="69.2175" x2="86.3831" y2="10.3359" gradientUnits="userSpaceOnUse">
<stop stop-color="#5CCDFF"/>
<stop offset="0.825" stop-color="#C478FF"/>
</linearGradient>
</defs>
</svg>
