<svg width="100" height="100" viewBox="0 0 100 100" fill="none" xmlns="http://www.w3.org/2000/svg">
<path d="M16.74 62.8401V70.0601M46.42 70.4501H15.02C11.99 70.4501 9.54004 72.9001 9.54004 75.9301V77.7701C9.54004 80.8001 11.99 83.2501 15.02 83.2501H49.74M58.72 49.6601H15.02C11.99 49.6601 9.54004 52.1101 9.54004 55.1401V56.9801C9.54004 60.0101 11.99 62.4601 15.02 62.4601H47.97M16.74 42.0501V49.2701M57.9 42.0501V49.2701M16.74 21.2601V28.4801M57.9 21.2601V28.4801M21.09 76.8401H28.18M21.09 56.0501H28.18M21.09 35.2701H28.18M21.09 14.4801H28.18M65.1 36.1901V34.3501C65.1 31.3201 62.65 28.8701 59.62 28.8701H15.02C11.99 28.8701 9.54004 31.3201 9.54004 34.3501V36.1901C9.54004 39.2201 11.99 41.6701 15.02 41.6701H59.62C62.65 41.6701 65.1 39.2201 65.1 36.1901ZM65.1 15.4001V13.5601C65.1 10.5301 62.65 8.08008 59.62 8.08008H15.02C11.99 8.08008 9.54004 10.5301 9.54004 13.5601V15.4001C9.54004 18.4301 11.99 20.8801 15.02 20.8801H59.62C62.65 20.8801 65.1 18.4301 65.1 15.4001Z" stroke="#CED5F0" stroke-width="3.5" stroke-linecap="round" stroke-linejoin="round"/>
<path d="M70.1 77.3803V73.5704C74.62 73.5704 78.29 69.9003 78.29 65.3803C78.29 60.8603 74.62 57.1903 70.1 57.1903C65.58 57.1903 61.91 60.8603 61.91 65.3803M70.1 47.1104C83.14 47.1104 93.71 57.6804 93.71 70.7204C93.71 83.7604 83.14 94.3304 70.1 94.3304C57.06 94.3304 46.49 83.7604 46.49 70.7204C46.49 57.6804 57.06 47.1104 70.1 47.1104ZM70.41 83.1003C69.81 83.1003 69.33 83.5804 69.33 84.1804C69.33 84.7804 69.81 85.2604 70.41 85.2604C71.01 85.2604 71.49 84.7804 71.49 84.1804C71.49 83.5804 71.01 83.1003 70.41 83.1003Z" stroke="url(#paint0_linear_768_739)" stroke-width="3.5" stroke-linecap="round" stroke-linejoin="round"/>
<defs>
<linearGradient id="paint0_linear_768_739" x1="46.49" y1="47.1104" x2="93.71" y2="94.3304" gradientUnits="userSpaceOnUse">
<stop stop-color="#8FDDFF"/>
<stop offset="1" stop-color="#D299FF"/>
</linearGradient>
</defs>
</svg>
