<svg width="100" height="100" viewBox="0 0 100 100" fill="none" xmlns="http://www.w3.org/2000/svg">
<path d="M76.86 75.0201C75.13 76.4301 72.92 77.2701 70.51 77.2701H34.67L20.55 92.9301V77.2701H17.58C12.01 77.2701 7.5 72.7601 7.5 67.1901V30.4101C7.5 24.8501 12.01 20.3301 17.58 20.3301H21.91" stroke="#CED5F0" stroke-width="3.5" stroke-linecap="round" stroke-linejoin="round"/>
<path d="M22.3601 33.3502C24.5101 31.9502 26.8401 30.9402 29.2601 30.3202L29.0701 26.6602C28.9901 25.1302 30.1701 23.8202 31.7001 23.7402L35.4601 23.5502C36.9901 23.4702 38.3001 24.6502 38.3801 26.1802L38.5701 29.8402C41.4701 30.2702 44.3101 31.2502 46.9201 32.7902L49.3701 30.0802C50.3901 28.9502 52.1601 28.8502 53.2901 29.8802L56.0801 32.4002C57.2101 33.4202 57.3101 35.1902 56.2801 36.3202L53.8301 39.0302C55.6301 41.4702 56.9001 44.1902 57.6301 47.0302L61.2901 46.8402C62.8201 46.7602 64.1301 47.9402 64.2101 49.4702L64.4001 53.2302C64.4801 54.7602 63.3001 56.0702 61.7701 56.1502L58.1101 56.3402C57.6801 59.2402 56.7001 62.0802 55.1601 64.6902M46.3801 64.3002C46.6001 64.0802 46.8101 63.8602 47.0201 63.6302C52.9701 57.0402 52.4401 46.8702 45.8501 40.9302C39.2601 34.9902 29.0901 35.5102 23.1401 42.1002C22.9601 42.3002 22.7801 42.5102 22.6101 42.7202M63.1001 8.26023C61.8101 10.6502 60.9801 13.2102 60.5901 15.8202L56.9301 16.0102C55.4001 16.0902 54.2201 17.4002 54.3001 18.9302L54.4901 22.6902C54.5701 24.2202 55.8801 25.4002 57.4101 25.3202L61.0701 25.1302C61.8001 27.9702 63.0701 30.6902 64.8701 33.1302L62.4201 35.8402C61.4001 36.9702 61.4901 38.7402 62.6201 39.7602L65.4101 42.2802C66.5401 43.3002 68.3101 43.2102 69.3301 42.0802L71.7801 39.3702C74.3901 40.9102 77.2301 41.8902 80.1301 42.3202L80.3201 45.9802C80.4001 47.5102 81.7101 48.6902 83.2401 48.6102L87.0001 48.4202C88.5301 48.3402 89.7101 47.0302 89.6301 45.5002L89.4401 41.8402C91.3001 41.3602 93.1201 40.6502 94.8401 39.7102M71.6701 8.53023C65.7201 15.1202 66.2501 25.2902 72.8401 31.2302C79.1701 36.9402 88.7901 36.6802 94.8101 30.8202M85.0901 7.99023H32.1601C26.5901 7.99023 22.0801 12.5002 22.0801 18.0702V54.8602C22.0801 60.4202 26.5901 64.9402 32.1601 64.9402H68.0001L82.1201 80.6002V64.9402H85.0901C90.6601 64.9402 95.1701 60.4302 95.1701 54.8602V18.0702C95.1701 12.5102 90.6601 7.99023 85.0901 7.99023Z" stroke="url(#paint0_linear_768_544)" stroke-width="3.5" stroke-linecap="round" stroke-linejoin="round"/>
<defs>
<linearGradient id="paint0_linear_768_544" x1="22.0801" y1="7.99023" x2="94.6885" y2="81.0786" gradientUnits="userSpaceOnUse">
<stop stop-color="#8FDDFF"/>
<stop offset="1" stop-color="#D299FF"/>
</linearGradient>
</defs>
</svg>
