<svg width="100" height="100" viewBox="0 0 100 100" fill="none" xmlns="http://www.w3.org/2000/svg">
<path d="M88.27 81.0802V73.3802M43.75 38.7402H35.55" stroke="#CED5F0" stroke-width="3.5" stroke-linecap="round" stroke-linejoin="round"/>
<path d="M94.0801 25.6397H78.3701C75.8901 25.6397 73.8801 23.6297 73.8801 21.1497V5.42969M82.1001 72.9297H89.5801C92.0601 72.9297 94.0701 70.9197 94.0701 68.4397V25.6397L73.8601 5.42969H48.3501C45.8701 5.42969 43.8601 7.43969 43.8601 9.91969V43.4597M53.1901 24.1797H64.0001M53.1901 34.3297H81.4601" stroke="url(#paint0_linear_768_994)" stroke-width="3.5" stroke-linecap="round" stroke-linejoin="round"/>
<path d="M84.9999 95.3204H9.28992C6.88992 95.3204 4.91992 93.3504 4.91992 90.9504V35.5604C4.91992 33.1604 6.88992 31.1904 9.28992 31.1904H27.2499C29.6599 31.1904 32.3899 33.0004 33.3299 35.2204L35.2299 39.7204C36.1699 41.9404 38.9099 43.7504 41.3099 43.7504H77.2499C79.6499 43.7504 81.6199 45.7204 81.6199 48.1204V92.0004C81.6199 93.8404 83.1499 95.3304 84.9899 95.3304C86.8299 95.3304 88.2699 93.8404 88.2699 92.0004V81.0804" stroke="#CED5F0" stroke-width="3.5" stroke-linecap="round" stroke-linejoin="round"/>
<defs>
<linearGradient id="paint0_linear_768_994" x1="43.8601" y1="5.42969" x2="108.513" y2="53.5312" gradientUnits="userSpaceOnUse">
<stop stop-color="#8FDDFF"/>
<stop offset="1" stop-color="#D299FF"/>
</linearGradient>
</defs>
</svg>
