<svg width="100" height="100" viewBox="0 0 100 100" fill="none" xmlns="http://www.w3.org/2000/svg">
<path d="M41.0203 12.91L6.17027 73.28C2.36027 79.88 7.12027 88.14 14.7503 88.14H84.4603C92.0903 88.14 96.8503 79.88 93.0403 73.28L58.1803 12.91C54.3703 6.30996 44.8303 6.30996 41.0203 12.91Z" stroke="#CED5F0" stroke-width="3.5" stroke-linecap="round" stroke-linejoin="round"/>
<path d="M49.5996 58.7402C47.3996 58.7402 45.6096 56.9502 45.6096 54.7502V29.9202C45.6096 27.7202 47.3996 25.9302 49.5996 25.9302C51.7996 25.9302 53.5896 27.7202 53.5896 29.9202V54.7502C53.5896 56.9502 51.7996 58.7402 49.5996 58.7402ZM44.0596 71.8902C44.0596 74.9502 46.5396 77.4302 49.5996 77.4302C52.6596 77.4302 55.1396 74.9502 55.1396 71.8902C55.1396 68.8302 52.6596 66.3502 49.5996 66.3502C46.5396 66.3502 44.0596 68.8302 44.0596 71.8902Z" stroke="url(#paint0_linear_768_579)" stroke-width="3.5" stroke-linecap="round" stroke-linejoin="round"/>
<defs>
<linearGradient id="paint0_linear_768_579" x1="44.0596" y1="25.9302" x2="65.2392" y2="30.4869" gradientUnits="userSpaceOnUse">
<stop stop-color="#8FDDFF"/>
<stop offset="1" stop-color="#D299FF"/>
</linearGradient>
</defs>
</svg>
