<svg width="100" height="100" viewBox="0 0 100 100" fill="none" xmlns="http://www.w3.org/2000/svg">
<path d="M32.85 74.7298C32.42 77.1698 31.66 79.5598 30.5 81.6398C29.4 83.6098 27.92 85.2898 26.01 86.4498C25.85 86.5498 25.56 86.3398 25.62 86.1398C26.45 83.7298 25.58 80.3098 25.09 77.0898C22.73 80.2198 22.45 84.8498 19.21 87.8298C16.22 90.5798 12.77 91.5498 8.48997 90.9398C8.26997 90.9098 8.08997 90.5598 8.33997 90.4598C14.87 87.9798 16.5 83.1898 18.28 76.8998C18.54 75.9898 18.88 75.1098 19.3 74.2598C16.14 75.1098 12.7 77.0998 11.45 79.8698C11.33 80.1298 10.84 79.9898 10.85 79.6798C11.05 75.6698 11.39 72.2198 14.7 69.8998C17.48 67.9498 21.27 66.6598 25.08 66.2598" stroke="url(#paint0_linear_768_538)" stroke-width="3.5" stroke-linecap="round" stroke-linejoin="round"/>
<path d="M40.3304 55.5901C40.3304 55.5901 44.3904 38.7701 48.4304 34.7301M40.3304 55.5901L42.3704 57.6301L44.4104 59.6701M40.3304 55.5901L25.5004 57.6601L20.1104 52.2701L35.9704 36.4101L48.4304 34.7301M48.4304 34.7301C52.4704 30.6901 54.1504 29.0101 63.9204 19.2401C73.6904 9.47014 91.2004 8.80014 91.2004 8.80014C91.2004 8.80014 90.5304 26.3201 80.7604 36.0801C70.9904 45.8401 69.3104 47.5301 65.2704 51.5701M65.2704 51.5701C61.2304 55.6101 44.4104 59.6701 44.4104 59.6701M65.2704 51.5701L63.5904 64.0301L47.7304 79.8901L42.3404 74.5001L44.4104 59.6701M33.5804 66.4201L55.8404 44.1601M56.3804 7.14014H17.3804C11.7304 7.14014 7.15039 11.7201 7.15039 17.3701V62.7001M92.8604 42.2901V82.6201C92.8604 88.2701 88.2804 92.8501 82.6304 92.8501H35.4704M71.0004 22.2601C69.1404 24.1201 69.1404 27.1401 71.0004 29.0001C72.8604 30.8601 75.8804 30.8601 77.7404 29.0001C79.6004 27.1401 79.6004 24.1201 77.7404 22.2601C75.8804 20.4001 72.8604 20.4001 71.0004 22.2601Z" stroke="#CED5F0" stroke-width="3.5" stroke-linecap="round" stroke-linejoin="round"/>
<defs>
<linearGradient id="paint0_linear_768_538" x1="8.21875" y1="66.2598" x2="33.0729" y2="90.89" gradientUnits="userSpaceOnUse">
<stop stop-color="#8FDDFF"/>
<stop offset="1" stop-color="#D299FF"/>
</linearGradient>
</defs>
</svg>
