<svg width="100" height="100" viewBox="0 0 100 100" fill="none" xmlns="http://www.w3.org/2000/svg">
<path d="M86.83 25.2201L45.25 37.2801M83.96 15.3201L25.53 32.2701M82.7 55.6501L87.88 54.1501C92.12 52.9201 94.57 48.4801 93.34 44.2401L84.28 12.9901C83.05 8.75014 78.61 6.30014 74.37 7.53014L37.95 18.0901C38.34 17.1001 38.56 16.0301 38.56 14.9001C38.56 10.0601 34.64 6.14014 29.8 6.14014C24.96 6.14014 21.04 10.0601 21.04 14.9001C21.04 17.8001 22.45 20.3601 24.62 21.9601M17.66 33.8701L17.24 32.4201C16.01 28.1801 18.46 23.7401 22.7 22.5101L24.61 21.9601C26.06 23.0301 27.85 23.6701 29.79 23.6701C33.5 23.6701 36.67 21.3601 37.95 18.1001M75.74 83.0201C77.12 83.9301 78.77 84.4601 80.55 84.4601C85.39 84.4601 89.31 80.5401 89.31 75.7001C89.31 70.8601 85.39 66.9401 80.55 66.9401C80.31 66.9401 80.06 66.9601 79.83 66.9801" stroke="#CED5F0" stroke-width="3.5" stroke-linecap="round" stroke-linejoin="round"/>
<path d="M19.6999 57.5201L60.2799 67.8501M18.0899 63.8501L36.2299 68.4701M16.4899 70.1701L22.3299 71.6601M33.1099 45.9001L48.1999 49.7401M65.0899 92.4101L12.9599 79.1401C8.67993 78.0501 6.08993 73.7001 7.17993 69.4101L15.1999 37.8801C16.2899 33.6001 20.6399 31.0101 24.9299 32.1001L77.0599 45.3701C81.3399 46.4601 83.9299 50.8101 82.8399 55.1001L74.8199 86.6301C73.7299 90.9101 69.3799 93.5001 65.0899 92.4101ZM68.3899 85.5201L70.1699 78.5401C70.3099 78.0001 69.9799 77.4601 69.4499 77.3201L56.3199 73.9801C55.7799 73.8401 55.2399 74.1701 55.0999 74.7001L53.3199 81.6801C53.1799 82.2201 53.5099 82.7601 54.0399 82.9001L67.1699 86.2401C67.7099 86.3801 68.2499 86.0501 68.3899 85.5201ZM26.3799 40.7901C24.6099 40.3401 22.8199 41.4101 22.3699 43.1701C21.9199 44.9301 22.9899 46.7301 24.7499 47.1801C26.5099 47.6301 28.3099 46.5601 28.7599 44.8001C29.2099 43.0401 28.1399 41.2401 26.3799 40.7901Z" stroke="url(#paint0_linear_768_74)" stroke-width="3.5" stroke-linecap="round" stroke-linejoin="round"/>
<defs>
<linearGradient id="paint0_linear_768_74" x1="6.93091" y1="31.8511" x2="66.2304" y2="106.12" gradientUnits="userSpaceOnUse">
<stop stop-color="#8FDDFF"/>
<stop offset="1" stop-color="#D299FF"/>
</linearGradient>
</defs>
</svg>
